<?xml version="1.0" standalone="no"?>
<!DOCTYPE svg PUBLIC "-//W3C//DTD SVG 20010904//EN"
 "http://www.w3.org/TR/2001/REC-SVG-20010904/DTD/svg10.dtd">
<svg version="1.0" xmlns="http://www.w3.org/2000/svg"
 width="880.000000pt" height="815.000000pt" viewBox="0 0 880.000000 815.000000"
 preserveAspectRatio="xMidYMid meet">
<metadata>
Created by potrace 1.16, written by Peter Selinger 2001-2019
</metadata>
<g transform="translate(0.000000,815.000000) scale(0.100000,-0.100000)"
fill="#000000" stroke="none">
<path d="M5517 7740 c-49 -13 -87 -33 -111 -59 -25 -28 -26 -23 119 -341 186
-406 306 -711 441 -1115 342 -1029 546 -2114 594 -3170 6 -126 15 -246 20
-266 16 -58 42 -74 119 -73 73 1 128 23 171 68 24 26 24 31 22 154 -8 483
-107 1320 -228 1935 -142 722 -450 1655 -841 2552 -93 213 -129 282 -158 301
-31 20 -97 26 -148 14z"/>
<path d="M6991 7291 c-45 -82 -81 -159 -81 -169 0 -14 41 -51 133 -120 442
-333 697 -674 852 -1139 83 -246 105 -395 105 -705 0 -415 -48 -631 -220
-1000 l-78 -168 26 -19 c35 -25 313 -163 318 -158 15 14 159 333 192 423 173
473 207 995 97 1489 -85 381 -274 774 -521 1085 -84 106 -326 348 -419 421
-127 99 -294 209 -317 209 -3 0 -42 -67 -87 -149z"/>
<path d="M5258 7367 c-171 -176 -510 -477 -776 -691 -753 -603 -1640 -1118
-2542 -1475 -113 -45 -222 -89 -244 -98 l-38 -17 6 -126 c20 -352 63 -639 137
-893 65 -225 209 -587 295 -740 l27 -49 71 7 c39 3 154 15 256 25 389 40 510
45 1005 45 481 0 644 -7 975 -41 683 -69 1261 -185 1951 -391 14 -4 18 4 20
40 8 89 -22 605 -51 897 -115 1140 -429 2274 -915 3302 -59 125 -113 232 -121
239 -10 8 -23 0 -56 -34z"/>
<path d="M6684 6728 c-31 -57 -72 -129 -90 -161 -19 -32 -34 -62 -34 -67 0 -5
21 -24 47 -42 132 -90 331 -296 424 -437 105 -160 200 -392 239 -581 16 -80
20 -138 20 -308 0 -237 -10 -309 -66 -477 -34 -104 -45 -130 -117 -286 l-35
-76 145 -72 c79 -40 160 -75 178 -78 33 -5 34 -4 70 68 93 184 169 423 202
634 21 135 23 418 4 555 -77 549 -384 1055 -833 1371 -46 33 -86 59 -90 59 -4
0 -33 -46 -64 -102z"/>
<path d="M1300 4974 c-25 -8 -109 -32 -188 -55 -260 -73 -362 -128 -490 -263
-167 -176 -244 -399 -213 -618 29 -204 101 -444 161 -538 85 -130 201 -229
352 -299 121 -56 203 -75 333 -75 96 0 138 7 339 52 126 28 233 55 237 59 4 5
-30 94 -76 198 -209 482 -305 866 -345 1387 -6 76 -13 144 -16 153 -7 18 -35
18 -94 -1z"/>
<path d="M3195 3154 c-278 -22 -611 -73 -747 -114 -76 -23 -128 -61 -128 -94
0 -31 20 -58 145 -186 125 -130 218 -242 263 -322 35 -61 56 -134 107 -368
123 -570 301 -970 534 -1201 151 -150 266 -189 458 -155 278 49 445 171 478
347 9 47 -12 125 -91 337 -107 285 -109 299 -109 632 l0 285 52 180 c84 290
97 348 97 463 0 77 -4 106 -14 116 -43 40 -371 76 -725 81 -148 1 -292 1 -320
-1z"/>
</g>
</svg>
