<?xml version="1.0" standalone="no"?>
<!DOCTYPE svg PUBLIC "-//W3C//DTD SVG 20010904//EN"
 "http://www.w3.org/TR/2001/REC-SVG-20010904/DTD/svg10.dtd">
<svg version="1.0" xmlns="http://www.w3.org/2000/svg"
 width="900.000000pt" height="520.000000pt" viewBox="0 0 900.000000 520.000000"
 preserveAspectRatio="xMidYMid meet">
<metadata>
Created by potrace 1.16, written by Peter Selinger 2001-2019
</metadata>
<g transform="translate(0.000000,520.000000) scale(0.100000,-0.100000)"
fill="#000000" stroke="none">
<path d="M3760 5170 c-809 -66 -1453 -311 -1700 -645 -80 -108 -94 -148 -98
-278 -4 -117 -4 -118 30 -190 168 -351 661 -599 1438 -723 319 -51 953 -55
1255 -9 816 126 1334 380 1492 733 38 84 44 224 14 315 -56 168 -225 334 -471
464 -305 161 -706 271 -1154 318 -177 18 -657 27 -806 15z"/>
<path d="M6196 3818 c-59 -170 -246 -343 -514 -478 -286 -142 -547 -215 -1037
-290 -248 -37 -895 -32 -1185 10 -410 59 -698 143 -973 282 -256 129 -436 292
-501 453 l-23 55 -6 -233 c-3 -127 -2 -292 2 -364 7 -124 10 -137 44 -205 177
-358 752 -623 1567 -725 185 -23 795 -26 990 -4 l125 13 75 72 c149 143 208
179 317 196 56 9 82 8 139 -5 129 -30 117 -31 137 18 22 55 106 150 162 182
63 38 160 54 350 60 l170 5 28 33 c55 63 107 150 129 216 20 61 22 90 26 361
2 162 2 319 0 348 l-3 54 -19 -54z"/>
<path d="M1958 2507 l4 -372 40 -78 c154 -298 593 -537 1225 -668 216 -44 624
-78 941 -79 l112 0 0 68 c0 179 87 326 234 399 31 15 56 30 56 34 0 3 -9 32
-20 64 -11 32 -20 81 -20 110 l0 51 -387 0 c-418 -1 -539 8 -838 59 -676 117
-1192 396 -1321 717 -14 35 -27 64 -28 65 -2 2 -1 -165 2 -370z"/>
<path d="M5738 2443 c-21 -5 -22 -7 -49 -176 -14 -85 -28 -146 -38 -156 -15
-17 -209 -101 -232 -101 -6 0 -73 45 -149 99 l-137 99 -103 -103 -103 -103 95
-133 c52 -74 97 -139 101 -145 9 -15 -89 -237 -110 -250 -10 -6 -83 -22 -163
-34 -80 -13 -148 -26 -151 -29 -9 -8 -17 -268 -10 -280 3 -5 78 -21 166 -36
88 -15 165 -32 171 -39 6 -6 21 -40 34 -76 12 -36 34 -87 47 -113 21 -43 23
-51 10 -65 -8 -10 -54 -72 -101 -140 l-87 -123 31 -39 c39 -49 159 -160 173
-160 6 0 71 41 145 91 107 73 139 90 160 86 43 -8 196 -77 213 -97 9 -11 24
-72 38 -157 12 -76 25 -146 27 -155 5 -16 21 -18 148 -18 l144 0 27 147 c15
82 32 158 36 171 6 14 27 31 56 43 27 11 78 34 114 51 44 20 71 28 81 22 8 -5
71 -48 140 -97 69 -48 130 -87 135 -87 4 0 53 45 107 99 70 70 96 103 90 112
-4 8 -50 72 -102 143 l-94 128 32 69 c17 37 40 92 50 121 l18 53 170 29 170
29 6 36 c11 68 7 238 -6 248 -7 6 -76 20 -153 33 -164 26 -182 32 -194 62 -6
13 -28 65 -50 117 -22 52 -38 98 -35 103 3 4 46 66 95 136 49 70 89 134 89
143 0 15 -180 199 -194 199 -4 0 -67 -43 -140 -95 -73 -52 -142 -95 -152 -95
-11 0 -44 12 -74 26 -30 14 -79 35 -107 46 -37 13 -54 26 -58 41 -7 29 -55
309 -55 319 0 8 -242 9 -272 1z m303 -801 c177 -85 274 -293 224 -477 -55
-205 -261 -342 -461 -308 -245 42 -400 273 -339 506 38 145 129 244 274 299
35 13 70 17 141 15 83 -3 103 -7 161 -35z"/>
<path d="M1957 1633 c-8 -315 2 -472 36 -546 51 -112 132 -205 262 -302 435
-323 1285 -507 2098 -456 104 7 195 15 202 17 11 5 11 13 -2 47 -8 23 -17 80
-20 127 -4 78 -2 96 28 199 2 8 -15 24 -47 40 -100 51 -178 137 -209 231 l-16
48 -167 1 c-541 5 -954 67 -1350 202 -154 52 -377 162 -477 233 -144 103 -265
237 -314 347 l-18 39 -6 -227z"/>
</g>
</svg>
