<svg id="Layer_1" data-name="Layer 1" xmlns="http://www.w3.org/2000/svg" viewBox="0 0 271.78 300.21"><defs><style>.cls-1{fill:#fff;}</style></defs><title>comaround</title><path class="cls-1" d="M920.68,482.22l27.14-82.05a11.89,11.89,0,0,1,4.94-6.34c4.31-2.71,11.61-6,17.92-2.27,0,0,1.67,0,0,8.66L946.72,515a12.33,12.33,0,0,1-3.59,6.48,22.36,22.36,0,0,1-9,5.33,14.27,14.27,0,0,1-13.84-3.61l-37.58-36.48A11,11,0,0,1,880.32,474a6.51,6.51,0,0,1,2.36-2.76s9.34-6.33,15.67-2Z" transform="translate(-824.11 -389.9)"/><path class="cls-1" d="M985.13,460.68a6.84,6.84,0,0,0-3,4.11l-13.74,51.77S964.67,528.2,980.54,533a7.27,7.27,0,0,0,4.16,0l106.08-30.62a6.9,6.9,0,0,0,4.25-9.92c-.11-.18-.22-.36-.35-.54a109.16,109.16,0,0,0-6.89-8.87,4.67,4.67,0,0,0-4.22-1.45L1001,495.22l.89-23.79a8.86,8.86,0,0,0-1.79-5.72C997.34,462.07,991.76,456.69,985.13,460.68Z" transform="translate(-824.11 -389.9)"/><path class="cls-1" d="M857.05,585.3a6.59,6.59,0,0,0,4.88.35l49.15-15.12s9.67-2.21,5.77-17.31a7.18,7.18,0,0,0-1.67-3.66l-77.5-68.67c-3.08-2.77-6.71-3.17-8.75.51-.1.17-.19.36-.28.55a105.31,105.31,0,0,0-3.87,10c-.43,1.45-1.16,4.34-.18,5.46l52.92,57.78L857.6,566.46a8.66,8.66,0,0,0-3.81,4.31C852.18,574.83,850.52,582,857.05,585.3Z" transform="translate(-824.11 -389.9)"/><ellipse class="cls-1" cx="130.11" cy="170.66" rx="19.21" ry="19.42"/><path class="cls-1" d="M1031.94,568.89l18.74-8.33s7.67-4.34,6.34-11.34c0,0,.66-9.83-9.67-8.08l-44.29,8.94a13.35,13.35,0,0,0-8.34,5.45c-2.45,3.55-4.49,8.82-1.37,14.69l66.67,71s4.66,5,10.66-5.66c0,0,6-6.67,0-13.34Z" transform="translate(-824.11 -389.9)"/><path class="cls-1" d="M969.35,599.56l-23.67,82.33s-1.66,7.67,6,7.67c0,0,10.67,3.66,14.67-8l22.67-53,17.66,12s4.67,2,10-2l.34-.21a6.88,6.88,0,0,0,1.15-11l-.15-.14-29.67-31.85a9.82,9.82,0,0,0-5.81-3C978.22,591.72,971.5,592.09,969.35,599.56Z" transform="translate(-824.11 -389.9)"/><path class="cls-1" d="M925.05,653.45a6.92,6.92,0,0,0,2.5-3.42L942,608.56s2.05-6.46-1.55-10.29a10.52,10.52,0,0,1-1.24-1.58c-1.19-1.88-5.14-5.94-15.88-2.8l-78.67,17s-10,.64-5.26,12.06a3.39,3.39,0,0,0,.73,1.07l4.87,4.87s0,1.33,8.66.33l58.67-5-1,16.9s0,7.07,3.81,9.91c.55.41,1.1.82,1.61,1.28C918.22,653.6,921.54,655.88,925.05,653.45Z" transform="translate(-824.11 -389.9)"/></svg>